<svg width="25" height="24" viewBox="0 0 25 24" fill="none" xmlns="http://www.w3.org/2000/svg">
<g id="Filled Lightmode/Facebook " clip-path="url(#clip0_10_2500)">
<path id="Vector" d="M24 12.0733C24 17.6474 20.0847 22.2987 14.875 23.3995V16.0633H17.1711H17.6006L17.6654 15.6386L18.1974 12.1487L18.2851 11.5733H17.7031H14.875V9.80958C14.875 9.40367 14.9747 9.06472 15.1731 8.83381C15.3594 8.61697 15.6949 8.42313 16.3306 8.42313H17.8438H18.3438V7.92313V4.95195V4.53047L17.9283 4.45916L17.8438 4.95195L17.9283 4.45915L17.9281 4.45913L17.9278 4.45907L17.9267 4.45889L17.9231 4.45827L17.9101 4.45608L17.8615 4.44815C17.8195 4.44141 17.7587 4.43188 17.6818 4.4205C17.5283 4.39776 17.3103 4.36757 17.0505 4.33739C16.5332 4.27729 15.8406 4.21615 15.1576 4.21615C13.6852 4.21615 12.413 4.66704 11.5086 5.57777C10.6041 6.48863 10.125 7.80156 10.125 9.41343V11.5733H7.57812H7.07812V12.0733V15.5633V16.0633H7.57812H10.125V23.3995C4.91532 22.2987 1 17.6474 1 12.0733C1 5.67868 6.15159 0.5 12.5 0.5C18.8484 0.5 24 5.67868 24 12.0733Z" fill="#1570EF" stroke="#1570EF"/>
</g>
<defs>
<clipPath id="clip0_10_2500">
<rect width="24" height="24" fill="white" transform="translate(0.5)"/>
</clipPath>
</defs>
</svg>
