<svg width="24" height="24" viewBox="0 0 24 24" fill="none" xmlns="http://www.w3.org/2000/svg">
<g id="Group 1000004690">
<circle id="Ellipse 3" cx="12" cy="12" r="12" fill="#2AA8F8"/>
<path id="Vector" d="M17.7436 6H6.25641C5.01169 6 4 7.01169 4 8.25641V16.4615C4 17.7063 5.01169 18.7179 6.25641 18.7179H17.7436C18.9883 18.7179 20 17.7063 20 16.4615V8.25641C20 7.01169 18.9883 6 17.7436 6ZM17.7436 7.23077C17.7625 7.23077 17.7789 7.24062 17.7969 7.24144L12.6154 11.1282C12.2527 11.3998 11.7465 11.3998 11.3846 11.1282L6.20308 7.24144C6.22195 7.24062 6.23754 7.23077 6.25641 7.23077H17.7436ZM18.7692 16.4615C18.7692 17.0269 18.3089 17.4872 17.7436 17.4872H6.25641C5.69108 17.4872 5.23077 17.0269 5.23077 16.4615V8.25641C5.23077 8.19323 5.25621 8.13826 5.26687 8.07836L10.6462 12.1128C11.0449 12.4115 11.5225 12.5608 12 12.5608C12.4775 12.5608 12.9559 12.4115 13.3538 12.1128L18.7331 8.07836C18.7438 8.13826 18.7692 8.19323 18.7692 8.25641V16.4615Z" fill="white"/>
</g>
</svg>
